<mxfile host="app.diagrams.net" modified="2023-12-26T13:42:17.111Z" agent="Mozilla/5.0 (Windows NT 10.0; Win64; x64) AppleWebKit/537.36 (KHTML, like Gecko) Chrome/117.0.0.0 Safari/537.36 Edg/117.0.2045.31" etag="1lL5LnPy0mcPBHmRVlxO" version="22.1.11" type="github">
  <diagram name="Page-1" id="hGykN5y3tZWLZU_Em2pr">
    <mxGraphModel dx="810" dy="553" grid="1" gridSize="10" guides="1" tooltips="1" connect="1" arrows="1" fold="1" page="1" pageScale="1" pageWidth="827" pageHeight="1169" math="0" shadow="0">
      <root>
        <mxCell id="0" />
        <mxCell id="1" parent="0" />
        <mxCell id="6Zt5p8sqsiiN5Y5i_0Kl-1" value="Serveur d&#39;autorisation" style="rounded=1;whiteSpace=wrap;html=1;" vertex="1" parent="1">
          <mxGeometry x="600" y="100" width="120" height="60" as="geometry" />
        </mxCell>
        <mxCell id="6Zt5p8sqsiiN5Y5i_0Kl-2" value="Propriétaire de la ressource" style="rounded=1;whiteSpace=wrap;html=1;" vertex="1" parent="1">
          <mxGeometry x="350" y="100" width="120" height="60" as="geometry" />
        </mxCell>
        <mxCell id="6Zt5p8sqsiiN5Y5i_0Kl-3" value="Client" style="rounded=1;whiteSpace=wrap;html=1;" vertex="1" parent="1">
          <mxGeometry x="100" y="100" width="120" height="60" as="geometry" />
        </mxCell>
        <mxCell id="6Zt5p8sqsiiN5Y5i_0Kl-4" value="" style="endArrow=classic;html=1;rounded=0;exitX=0.5;exitY=1;exitDx=0;exitDy=0;dashed=1;" edge="1" parent="1">
          <mxGeometry width="50" height="50" relative="1" as="geometry">
            <mxPoint x="159.5" y="160" as="sourcePoint" />
            <mxPoint x="160" y="370" as="targetPoint" />
            <Array as="points" />
          </mxGeometry>
        </mxCell>
        <mxCell id="6Zt5p8sqsiiN5Y5i_0Kl-5" value="1. Redirection vers le serveur d&#39;autorisation" style="text;whiteSpace=wrap;fontSize=10;" vertex="1" parent="1">
          <mxGeometry x="171" y="217" width="239" height="30" as="geometry" />
        </mxCell>
        <mxCell id="6Zt5p8sqsiiN5Y5i_0Kl-6" value="" style="endArrow=classic;html=1;rounded=0;exitX=0.5;exitY=1;exitDx=0;exitDy=0;dashed=1;" edge="1" parent="1">
          <mxGeometry width="50" height="50" relative="1" as="geometry">
            <mxPoint x="659.5" y="160" as="sourcePoint" />
            <mxPoint x="660" y="370" as="targetPoint" />
          </mxGeometry>
        </mxCell>
        <mxCell id="6Zt5p8sqsiiN5Y5i_0Kl-7" value="" style="endArrow=classic;html=1;rounded=0;exitX=0.5;exitY=1;exitDx=0;exitDy=0;dashed=1;" edge="1" parent="1" source="6Zt5p8sqsiiN5Y5i_0Kl-2">
          <mxGeometry width="50" height="50" relative="1" as="geometry">
            <mxPoint x="414" y="170" as="sourcePoint" />
            <mxPoint x="410" y="370" as="targetPoint" />
          </mxGeometry>
        </mxCell>
        <mxCell id="6Zt5p8sqsiiN5Y5i_0Kl-8" value="2. Authentification et autorisation du client" style="text;whiteSpace=wrap;fontSize=10;" vertex="1" parent="1">
          <mxGeometry x="440" y="225" width="239" height="22" as="geometry" />
        </mxCell>
        <mxCell id="6Zt5p8sqsiiN5Y5i_0Kl-9" value="3. Redirection vers le client avec un token d&#39;accès" style="text;whiteSpace=wrap;fontSize=10;" vertex="1" parent="1">
          <mxGeometry x="427" y="290" width="239" height="20" as="geometry" />
        </mxCell>
        <mxCell id="6Zt5p8sqsiiN5Y5i_0Kl-13" value="" style="rounded=0;whiteSpace=wrap;html=1;" vertex="1" parent="1">
          <mxGeometry x="405" y="229" width="10" height="20" as="geometry" />
        </mxCell>
        <mxCell id="6Zt5p8sqsiiN5Y5i_0Kl-14" value="" style="endArrow=classic;html=1;rounded=0;entryX=0.5;entryY=0.55;entryDx=0;entryDy=0;entryPerimeter=0;" edge="1" parent="1" target="6Zt5p8sqsiiN5Y5i_0Kl-13">
          <mxGeometry width="50" height="50" relative="1" as="geometry">
            <mxPoint x="160" y="240" as="sourcePoint" />
            <mxPoint x="400" y="240" as="targetPoint" />
          </mxGeometry>
        </mxCell>
        <mxCell id="6Zt5p8sqsiiN5Y5i_0Kl-15" value="" style="endArrow=classic;html=1;rounded=0;entryX=0.905;entryY=1.027;entryDx=0;entryDy=0;entryPerimeter=0;" edge="1" parent="1" target="6Zt5p8sqsiiN5Y5i_0Kl-8">
          <mxGeometry width="50" height="50" relative="1" as="geometry">
            <mxPoint x="410" y="248" as="sourcePoint" />
            <mxPoint x="650" y="250" as="targetPoint" />
          </mxGeometry>
        </mxCell>
        <mxCell id="6Zt5p8sqsiiN5Y5i_0Kl-16" value="" style="rounded=0;whiteSpace=wrap;html=1;" vertex="1" parent="1">
          <mxGeometry x="654" y="238" width="10" height="52" as="geometry" />
        </mxCell>
        <mxCell id="6Zt5p8sqsiiN5Y5i_0Kl-17" value="" style="endArrow=classic;html=1;rounded=0;dashed=1;dashPattern=8 8;" edge="1" parent="1">
          <mxGeometry width="50" height="50" relative="1" as="geometry">
            <mxPoint x="654" y="290" as="sourcePoint" />
            <mxPoint x="410" y="290" as="targetPoint" />
          </mxGeometry>
        </mxCell>
        <mxCell id="6Zt5p8sqsiiN5Y5i_0Kl-18" value="" style="endArrow=classic;html=1;rounded=0;dashed=1;dashPattern=8 8;" edge="1" parent="1">
          <mxGeometry width="50" height="50" relative="1" as="geometry">
            <mxPoint x="410" y="300" as="sourcePoint" />
            <mxPoint x="166" y="300" as="targetPoint" />
          </mxGeometry>
        </mxCell>
        <mxCell id="6Zt5p8sqsiiN5Y5i_0Kl-19" value="3. Redirection vers le client avec un token d&#39;accès" style="text;whiteSpace=wrap;fontSize=10;" vertex="1" parent="1">
          <mxGeometry x="171" y="300" width="239" height="20" as="geometry" />
        </mxCell>
      </root>
    </mxGraphModel>
  </diagram>
</mxfile>
